<svg xmlns="http://www.w3.org/2000/svg" viewBox="0 0 200.94 18.28"><title>Asset 10</title><g id="Layer_2" data-name="Layer 2"><g id="Layer_1-2" data-name="Layer 1"><path d="M17.05,20.4V8.8q0-.89.14-2.87h0q-.16.53-.3.91a6.69,6.69,0,0,1-.25.63L10.73,20.4h-.67L4.2,7.56a11,11,0,0,1-.53-1.65h0q0,.54.06,1.23t0,1.54V20.4H2.18V3.6H4L9.73,16.23q.18.4.35.81t.31.88h.07l.3-.86q.13-.39.33-.83L16.84,3.6h1.75V20.4Z" transform="translate(-2.18 -2.41)" style="fill:#fff"/><path d="M23.44,5.37a1,1,0,0,1-.75-.3,1,1,0,0,1-.32-.77,1,1,0,0,1,.32-.76,1.06,1.06,0,0,1,.75-.3,1.18,1.18,0,0,1,.42.08,1,1,0,0,1,.35.22,1.07,1.07,0,0,1,.23.33,1,1,0,0,1,.09.43,1.09,1.09,0,0,1-.08.42,1,1,0,0,1-.23.35,1.12,1.12,0,0,1-.35.23A1.08,1.08,0,0,1,23.44,5.37Zm-.74,15V8.4h1.5v12Z" transform="translate(-2.18 -2.41)" style="fill:#fff"/><path d="M36,19.86a6.29,6.29,0,0,1-3.23.83,5.54,5.54,0,0,1-2.32-.45A5.08,5.08,0,0,1,28.73,19a5.65,5.65,0,0,1-1.11-1.92,7.26,7.26,0,0,1-.39-2.41,7.73,7.73,0,0,1,.41-2.54A6.07,6.07,0,0,1,28.84,10a5.66,5.66,0,0,1,1.92-1.4,6.24,6.24,0,0,1,2.6-.52,6.35,6.35,0,0,1,2.72.57v1.59a5,5,0,0,0-2.84-.87,4.29,4.29,0,0,0-1.9.4,4.08,4.08,0,0,0-1.4,1.1,4.93,4.93,0,0,0-.87,1.63,6.43,6.43,0,0,0-.3,2A6.64,6.64,0,0,0,29,16.37a4.56,4.56,0,0,0,.77,1.55A3.77,3.77,0,0,0,31.13,19a4.15,4.15,0,0,0,1.88.4,5,5,0,0,0,3-1Z" transform="translate(-2.18 -2.41)" style="fill:#fff"/><path d="M44.88,9.94a2.24,2.24,0,0,0-1.36-.39,2.33,2.33,0,0,0-1.05.23,2.67,2.67,0,0,0-.8.62,3.7,3.7,0,0,0-.59.9,6.25,6.25,0,0,0-.39,1.06,7.77,7.77,0,0,0-.21,1.11,9.39,9.39,0,0,0-.06,1.07V20.4H38.93V8.4h1.49V11h0A5.34,5.34,0,0,1,41,9.79a3.66,3.66,0,0,1,.74-.88,3.11,3.11,0,0,1,.92-.54,3,3,0,0,1,1-.19,4.06,4.06,0,0,1,.65,0,2.48,2.48,0,0,1,.52.14Z" transform="translate(-2.18 -2.41)" style="fill:#fff"/><path d="M51.66,20.68a6.14,6.14,0,0,1-2.4-.45A5.12,5.12,0,0,1,47.45,19a5.55,5.55,0,0,1-1.15-2,7.58,7.58,0,0,1-.4-2.52,8,8,0,0,1,.42-2.68,5.65,5.65,0,0,1,1.2-2,5.13,5.13,0,0,1,1.88-1.26,6.67,6.67,0,0,1,2.46-.43,6.13,6.13,0,0,1,2.34.43A4.78,4.78,0,0,1,56,9.79a5.51,5.51,0,0,1,1.11,2,8.32,8.32,0,0,1,.39,2.64,7.7,7.7,0,0,1-.4,2.56,5.78,5.78,0,0,1-1.15,2,5.11,5.11,0,0,1-1.83,1.29A6.19,6.19,0,0,1,51.66,20.68Zm.12-11.26A4.5,4.5,0,0,0,50,9.76a3.74,3.74,0,0,0-1.37,1,4.48,4.48,0,0,0-.87,1.59,7,7,0,0,0-.3,2.14,6.31,6.31,0,0,0,.3,2,4.58,4.58,0,0,0,.86,1.55A3.72,3.72,0,0,0,50,19a4.84,4.84,0,0,0,3.56,0,3.52,3.52,0,0,0,1.31-1,4.28,4.28,0,0,0,.81-1.56,7.4,7.4,0,0,0,.28-2.11,5.62,5.62,0,0,0-1.08-3.71A3.8,3.8,0,0,0,51.77,9.42Z" transform="translate(-2.18 -2.41)" style="fill:#fff"/><path d="M59.83,18.25a4.8,4.8,0,0,0,.74.48,6.39,6.39,0,0,0,.82.36,5.16,5.16,0,0,0,.85.23,4.65,4.65,0,0,0,.81.08q2.67,0,2.67-2a1.59,1.59,0,0,0-.19-.79A2.06,2.06,0,0,0,65,16a4.51,4.51,0,0,0-.84-.51Q63.66,15.25,63,15a11.17,11.17,0,0,1-1.43-.69,4.33,4.33,0,0,1-1-.77,2.77,2.77,0,0,1-.57-.91,3.19,3.19,0,0,1-.19-1.13,2.87,2.87,0,0,1,.35-1.42A3.29,3.29,0,0,1,61.14,9a4.33,4.33,0,0,1,1.35-.66,5.62,5.62,0,0,1,1.61-.23,6,6,0,0,1,2.72.59v1.58a5.27,5.27,0,0,0-2.91-.87,3.52,3.52,0,0,0-1,.14,2.39,2.39,0,0,0-.79.4,1.83,1.83,0,0,0-.51.62,1.72,1.72,0,0,0-.18.79,2,2,0,0,0,.14.78,1.7,1.7,0,0,0,.44.6,3.69,3.69,0,0,0,.77.52q.47.25,1.15.53a14.58,14.58,0,0,1,1.5.7,4.65,4.65,0,0,1,1,.75,2.64,2.64,0,0,1,.61.9,3.09,3.09,0,0,1,.2,1.15,3,3,0,0,1-.33,1.44A3.11,3.11,0,0,1,66,19.81a4.27,4.27,0,0,1-1.39.66,6.43,6.43,0,0,1-1.73.22,5.75,5.75,0,0,1-3.06-.76Z" transform="translate(-2.18 -2.41)" style="fill:#fff"/><path d="M75.17,20.68a6.14,6.14,0,0,1-2.4-.45A5.12,5.12,0,0,1,71,19a5.55,5.55,0,0,1-1.15-2,7.58,7.58,0,0,1-.4-2.52,8,8,0,0,1,.42-2.68,5.65,5.65,0,0,1,1.2-2,5.13,5.13,0,0,1,1.88-1.26,6.67,6.67,0,0,1,2.46-.43,6.13,6.13,0,0,1,2.34.43,4.78,4.78,0,0,1,1.77,1.24,5.51,5.51,0,0,1,1.11,2A8.32,8.32,0,0,1,81,14.39a7.7,7.7,0,0,1-.4,2.56,5.78,5.78,0,0,1-1.15,2,5.11,5.11,0,0,1-1.83,1.29A6.19,6.19,0,0,1,75.17,20.68Zm.12-11.26a4.5,4.5,0,0,0-1.78.34,3.74,3.74,0,0,0-1.37,1,4.48,4.48,0,0,0-.87,1.59,7,7,0,0,0-.3,2.14,6.31,6.31,0,0,0,.3,2,4.58,4.58,0,0,0,.86,1.55,3.72,3.72,0,0,0,1.35,1,4.84,4.84,0,0,0,3.56,0,3.52,3.52,0,0,0,1.31-1,4.28,4.28,0,0,0,.81-1.56,7.4,7.4,0,0,0,.28-2.11,5.62,5.62,0,0,0-1.08-3.71A3.8,3.8,0,0,0,75.28,9.42Z" transform="translate(-2.18 -2.41)" style="fill:#fff"/><path d="M89.17,4.05a2.35,2.35,0,0,0-1.3-.33q-2.11,0-2.11,2.75V8.4h3V9.72h-3V20.4h-1.5V9.72h-2.1V8.4h2.1v-2a5.48,5.48,0,0,1,.23-1.64,3.53,3.53,0,0,1,.67-1.25,2.93,2.93,0,0,1,1.12-.8,4,4,0,0,1,1.55-.28,3.31,3.31,0,0,1,1.34.22Z" transform="translate(-2.18 -2.41)" style="fill:#fff"/><path d="M96.24,20.26a3.72,3.72,0,0,1-1.69.39q-2.91,0-2.91-3.35V9.72H89.53V8.4h2.11v-3l1.5-.49V8.4h3.09V9.72H93.14v7.35a3,3,0,0,0,.4,1.76,1.57,1.57,0,0,0,1.35.54,2.42,2.42,0,0,0,1.35-.42Z" transform="translate(-2.18 -2.41)" style="fill:#fff"/><path d="M116.42,20.4l-1.85-5h-7.21l-1.8,5h-1.73l6.4-16.81h1.57l6.36,16.81ZM111.29,6.54q-.08-.22-.17-.52a5,5,0,0,1-.15-.67h0a6.51,6.51,0,0,1-.16.67q-.09.29-.17.52L107.88,14H114Z" transform="translate(-2.18 -2.41)" style="fill:#fff"/><path d="M128.53,19.86a6.29,6.29,0,0,1-3.23.83,5.54,5.54,0,0,1-2.32-.45A5.08,5.08,0,0,1,121.22,19a5.65,5.65,0,0,1-1.11-1.92,7.26,7.26,0,0,1-.39-2.41,7.73,7.73,0,0,1,.41-2.54,6.07,6.07,0,0,1,1.2-2.07,5.66,5.66,0,0,1,1.92-1.4,6.24,6.24,0,0,1,2.6-.52,6.35,6.35,0,0,1,2.72.57v1.59a5,5,0,0,0-2.84-.87,4.29,4.29,0,0,0-1.9.4,4.08,4.08,0,0,0-1.4,1.1,4.93,4.93,0,0,0-.87,1.63,6.43,6.43,0,0,0-.3,2,6.64,6.64,0,0,0,.25,1.84,4.56,4.56,0,0,0,.77,1.55A3.77,3.77,0,0,0,123.61,19a4.15,4.15,0,0,0,1.88.4,5,5,0,0,0,3-1Z" transform="translate(-2.18 -2.41)" style="fill:#fff"/><path d="M138.33,20.4V18.27h0a4.41,4.41,0,0,1-1.6,1.78,4.24,4.24,0,0,1-2.29.63,4.68,4.68,0,0,1-1.56-.25,3.36,3.36,0,0,1-1.18-.7,3.07,3.07,0,0,1-.75-1.08,3.59,3.59,0,0,1-.26-1.39,3.43,3.43,0,0,1,1-2.6,5.42,5.42,0,0,1,3-1.26l3.64-.53q0-3.46-2.68-3.46A5.87,5.87,0,0,0,131.76,11V9.32a5,5,0,0,1,.85-.49,7.81,7.81,0,0,1,1-.37,8.24,8.24,0,0,1,1.08-.25,7,7,0,0,1,1.08-.09,3.89,3.89,0,0,1,3,1.13,4.83,4.83,0,0,1,1,3.35v7.8Zm-3.09-5.82a9.39,9.39,0,0,0-1.38.29,2.84,2.84,0,0,0-.95.47,1.77,1.77,0,0,0-.55.74,2.93,2.93,0,0,0-.18,1.08,2.3,2.3,0,0,0,.17.89,2,2,0,0,0,.49.71,2.24,2.24,0,0,0,.79.46,3.13,3.13,0,0,0,1,.16,3.46,3.46,0,0,0,2.62-1.15,3.91,3.91,0,0,0,.76-1.29,4.69,4.69,0,0,0,.28-1.63V14.15Z" transform="translate(-2.18 -2.41)" style="fill:#fff"/><path d="M151.85,20.4V18.29h0a4.26,4.26,0,0,1-1.7,1.76,5,5,0,0,1-2.51.63,4.91,4.91,0,0,1-2-.42,4.39,4.39,0,0,1-1.58-1.2,5.58,5.58,0,0,1-1-1.9,8.23,8.23,0,0,1-.36-2.52A8.51,8.51,0,0,1,143,12a6.15,6.15,0,0,1,1.11-2.06,5,5,0,0,1,1.73-1.34,5.25,5.25,0,0,1,2.26-.47,3.9,3.9,0,0,1,3.71,2.07h0V2.64h1.5V20.4Zm0-7.24a3.94,3.94,0,0,0-.27-1.46,3.65,3.65,0,0,0-.75-1.18,3.51,3.51,0,0,0-1.15-.8,3.68,3.68,0,0,0-1.48-.29,3.82,3.82,0,0,0-1.64.35,3.58,3.58,0,0,0-1.28,1,4.87,4.87,0,0,0-.83,1.61,7.17,7.17,0,0,0-.3,2.16,7.12,7.12,0,0,0,.27,2,4.43,4.43,0,0,0,.77,1.52,3.36,3.36,0,0,0,1.19.95,3.54,3.54,0,0,0,1.54.33,4,4,0,0,0,1.65-.33,3.61,3.61,0,0,0,1.24-.9,4.06,4.06,0,0,0,.78-1.35,4.89,4.89,0,0,0,.28-1.65Z" transform="translate(-2.18 -2.41)" style="fill:#fff"/><path d="M157.94,14.67a6.72,6.72,0,0,0,.29,2,4.2,4.2,0,0,0,.81,1.49,3.48,3.48,0,0,0,1.28.93,4.31,4.31,0,0,0,1.71.32A6.1,6.1,0,0,0,165.86,18v1.48a7,7,0,0,1-4.17,1.23,5.51,5.51,0,0,1-2.19-.42A4.54,4.54,0,0,1,157.82,19a5.6,5.6,0,0,1-1.07-2,8.76,8.76,0,0,1-.37-2.67,7.37,7.37,0,0,1,.41-2.5,6.16,6.16,0,0,1,1.14-2,5.24,5.24,0,0,1,1.72-1.31,5,5,0,0,1,2.18-.47,4.91,4.91,0,0,1,2.05.4,4,4,0,0,1,1.49,1.15,5.23,5.23,0,0,1,.92,1.83,8.56,8.56,0,0,1,.32,2.41v.75Zm7.13-1.31a4.57,4.57,0,0,0-.89-2.91,2.92,2.92,0,0,0-2.38-1,3.65,3.65,0,0,0-1.41.27,3.36,3.36,0,0,0-1.14.78,4.2,4.2,0,0,0-.81,1.24,6.24,6.24,0,0,0-.45,1.65Z" transform="translate(-2.18 -2.41)" style="fill:#fff"/><path d="M184.63,20.4V13.35a8.62,8.62,0,0,0-.16-1.82,3.18,3.18,0,0,0-.51-1.21,2,2,0,0,0-.88-.68,3.45,3.45,0,0,0-1.27-.21,2.61,2.61,0,0,0-1.24.31,3.29,3.29,0,0,0-1,.86,4.17,4.17,0,0,0-.69,1.28,4.9,4.9,0,0,0-.25,1.59V20.4h-1.5V13.2q0-3.77-2.89-3.77a2.65,2.65,0,0,0-1.24.3,3.1,3.1,0,0,0-1,.84,4,4,0,0,0-.67,1.29,5.49,5.49,0,0,0-.24,1.67V20.4h-1.5V8.4H171v1.95h0a4,4,0,0,1,3.69-2.23,3.65,3.65,0,0,1,1.2.19,3.47,3.47,0,0,1,1,.54,3.52,3.52,0,0,1,.77.83,3.71,3.71,0,0,1,.49,1.05,4.82,4.82,0,0,1,1.65-1.95,4.07,4.07,0,0,1,2.29-.67q3.95,0,3.95,4.87V20.4Z" transform="translate(-2.18 -2.41)" style="fill:#fff"/><path d="M190.48,5.37a1,1,0,0,1-.75-.3,1,1,0,0,1-.32-.77,1,1,0,0,1,.32-.76,1.06,1.06,0,0,1,.75-.3,1.18,1.18,0,0,1,.42.08,1,1,0,0,1,.35.22,1.07,1.07,0,0,1,.23.33,1,1,0,0,1,.09.43,1.09,1.09,0,0,1-.08.42,1,1,0,0,1-.23.35,1.12,1.12,0,0,1-.35.23A1.08,1.08,0,0,1,190.48,5.37Zm-.74,15V8.4h1.5v12Z" transform="translate(-2.18 -2.41)" style="fill:#fff"/><path d="M203.09,19.86a6.29,6.29,0,0,1-3.23.83,5.54,5.54,0,0,1-2.32-.45A5.08,5.08,0,0,1,195.78,19a5.65,5.65,0,0,1-1.11-1.92,7.26,7.26,0,0,1-.39-2.41,7.73,7.73,0,0,1,.41-2.54,6.07,6.07,0,0,1,1.2-2.07,5.66,5.66,0,0,1,1.92-1.4,6.24,6.24,0,0,1,2.6-.52,6.35,6.35,0,0,1,2.72.57v1.59a5,5,0,0,0-2.84-.87,4.29,4.29,0,0,0-1.9.4,4.08,4.08,0,0,0-1.4,1.1,4.93,4.93,0,0,0-.87,1.63,6.43,6.43,0,0,0-.3,2,6.64,6.64,0,0,0,.25,1.84,4.56,4.56,0,0,0,.77,1.55A3.77,3.77,0,0,0,198.17,19a4.15,4.15,0,0,0,1.88.4,5,5,0,0,0,3-1Z" transform="translate(-2.18 -2.41)" style="fill:#fff"/></g></g></svg>