<svg width="820" height="168" viewBox="0 0 820 168" fill="none" xmlns="http://www.w3.org/2000/svg">
<rect width="820" height="164" fill="black" fill-opacity="0"/>
<rect width="155" height="155" fill="black" fill-opacity="0" transform="translate(665)"/>
<rect width="155" height="155" fill="black" fill-opacity="0" transform="translate(665)"/>
<rect width="155" height="140" fill="black" fill-opacity="0" transform="translate(665 8)"/>
<circle cx="708" cy="118" r="27" fill="#FFC700" stroke="black" stroke-width="6"/>
<circle cx="681" cy="36" r="16" fill="#5D835A"/>
<circle cx="757" cy="24" r="16" fill="#5D835A"/>
<circle cx="804" cy="64" r="16" fill="#5D835A"/>
<circle cx="804" cy="132" r="16" fill="#5D835A"/>
<path d="M688 55.5L696.5 83.5" stroke="black"/>
<path d="M724.5 84L746 45.5" stroke="black"/>
<path d="M744 101L784.5 78" stroke="black"/>
<path d="M747 128L780.5 132" stroke="black"/>
<path d="M32.4 90.8C40.7333 90.8 47.5 94 52.7 100.4C53.2333 101 53.5 101.7 53.5 102.5C53.5 103.567 52.9333 104.5 51.8 105.3C51.2 105.7 50.5667 105.9 49.9 105.9C48.9 105.9 47.9333 105.4 47 104.4C45 102.2 42.8 100.567 40.4 99.5C38 98.3667 35.3333 97.8 32.4 97.8C28.7333 97.8 25.4667 98.7 22.6 100.5C19.7333 102.233 17.5 104.7 15.9 107.9C14.3667 111.1 13.6 114.7 13.6 118.7C13.6 122.633 14.4333 126.2 16.1 129.4C17.7667 132.533 20.1 135 23.1 136.8C26.1 138.6 29.5333 139.5 33.4 139.5C38.7333 139.5 43.0333 138.067 46.3 135.2C47.1667 134.467 48.0667 134.1 49 134.1C49.8 134.1 50.5333 134.367 51.2 134.9C52.1333 135.7 52.6 136.6 52.6 137.6C52.6 138.467 52.2667 139.2 51.6 139.8C46.8 144.267 40.7333 146.5 33.4 146.5C28.2 146.5 23.5333 145.3 19.4 142.9C15.2667 140.433 12 137.1 9.6 132.9C7.26667 128.633 6.1 123.9 6.1 118.7C6.1 113.367 7.23333 108.6 9.5 104.4C11.7667 100.133 14.9 96.8 18.9 94.4C22.9 92 27.4 90.8 32.4 90.8ZM70.1703 95.2C70.1703 94.0667 70.537 93.1333 71.2703 92.4C72.0036 91.6667 72.937 91.3 74.0703 91.3C75.2036 91.3 76.1036 91.6667 76.7703 92.4C77.5036 93.1333 77.8703 94.0667 77.8703 95.2V142.1C77.8703 143.233 77.5036 144.167 76.7703 144.9C76.1036 145.633 75.2036 146 74.0703 146C72.937 146 72.0036 145.633 71.2703 144.9C70.537 144.167 70.1703 143.233 70.1703 142.1V95.2ZM74.0703 70C75.537 70 76.8036 70.5 77.8703 71.5C78.937 72.5 79.4703 73.8 79.4703 75.4C79.4703 76.9333 78.937 78.2333 77.8703 79.3C76.8036 80.3667 75.5036 80.9 73.9703 80.9C72.437 80.9 71.137 80.3667 70.0703 79.3C69.0703 78.2333 68.5703 76.9333 68.5703 75.4C68.5703 73.8 69.1036 72.5 70.1703 71.5C71.237 70.5 72.537 70 74.0703 70ZM121.577 138.3C122.643 138.3 123.51 138.667 124.177 139.4C124.843 140.133 125.177 141.067 125.177 142.2C125.177 143.267 124.777 144.167 123.977 144.9C123.177 145.633 122.177 146 120.977 146H118.877C115.343 146 112.177 145.167 109.377 143.5C106.577 141.767 104.377 139.467 102.777 136.6C101.243 133.667 100.477 130.367 100.477 126.7V100H93.9766C92.9099 100 92.0432 99.7 91.3766 99.1C90.7766 98.4333 90.4766 97.6333 90.4766 96.7C90.4766 95.7 90.7766 94.9 91.3766 94.3C92.0432 93.6333 92.9099 93.3 93.9766 93.3H100.477V77.8C100.477 76.6667 100.81 75.7333 101.477 75C102.21 74.2667 103.143 73.9 104.277 73.9C105.41 73.9 106.343 74.2667 107.077 75C107.81 75.7333 108.177 76.6667 108.177 77.8V93.3H119.477C120.543 93.3 121.377 93.6333 121.977 94.3C122.643 94.9 122.977 95.7 122.977 96.7C122.977 97.6333 122.643 98.4333 121.977 99.1C121.377 99.7 120.543 100 119.477 100H108.177V126.7C108.177 130.1 109.177 132.9 111.177 135.1C113.177 137.233 115.743 138.3 118.877 138.3H121.577ZM162.611 90.8C167.811 90.8 172.511 92.0333 176.711 94.5C180.978 96.9 184.311 100.233 186.711 104.5C189.178 108.767 190.411 113.5 190.411 118.7V142.2C190.411 143.267 190.044 144.167 189.311 144.9C188.578 145.633 187.644 146 186.511 146C185.378 146 184.444 145.667 183.711 145C182.978 144.267 182.611 143.333 182.611 142.2V136.2C180.278 139.4 177.311 141.933 173.711 143.8C170.111 145.6 166.144 146.5 161.811 146.5C156.744 146.5 152.144 145.3 148.011 142.9C143.944 140.433 140.711 137.1 138.311 132.9C135.978 128.633 134.811 123.9 134.811 118.7C134.811 113.5 136.011 108.767 138.411 104.5C140.878 100.233 144.211 96.9 148.411 94.5C152.678 92.0333 157.411 90.8 162.611 90.8ZM162.611 139.5C166.411 139.5 169.844 138.6 172.911 136.8C175.978 135 178.378 132.533 180.111 129.4C181.911 126.2 182.811 122.633 182.811 118.7C182.811 114.767 181.911 111.233 180.111 108.1C178.378 104.9 175.978 102.4 172.911 100.6C169.844 98.7333 166.411 97.8 162.611 97.8C158.811 97.8 155.344 98.7333 152.211 100.6C149.144 102.4 146.711 104.9 144.911 108.1C143.178 111.233 142.311 114.767 142.311 118.7C142.311 122.633 143.178 126.2 144.911 129.4C146.711 132.533 149.144 135 152.211 136.8C155.344 138.6 158.811 139.5 162.611 139.5ZM229.487 138.3C230.553 138.3 231.42 138.667 232.087 139.4C232.753 140.133 233.087 141.067 233.087 142.2C233.087 143.267 232.687 144.167 231.887 144.9C231.087 145.633 230.087 146 228.887 146H226.787C223.253 146 220.087 145.167 217.287 143.5C214.487 141.767 212.287 139.467 210.687 136.6C209.153 133.667 208.387 130.367 208.387 126.7V100H201.887C200.82 100 199.953 99.7 199.287 99.1C198.687 98.4333 198.387 97.6333 198.387 96.7C198.387 95.7 198.687 94.9 199.287 94.3C199.953 93.6333 200.82 93.3 201.887 93.3H208.387V77.8C208.387 76.6667 208.72 75.7333 209.387 75C210.12 74.2667 211.053 73.9 212.187 73.9C213.32 73.9 214.253 74.2667 214.987 75C215.72 75.7333 216.087 76.6667 216.087 77.8V93.3H227.387C228.453 93.3 229.287 93.6333 229.887 94.3C230.553 94.9 230.887 95.7 230.887 96.7C230.887 97.6333 230.553 98.4333 229.887 99.1C229.287 99.7 228.453 100 227.387 100H216.087V126.7C216.087 130.1 217.087 132.9 219.087 135.1C221.087 137.233 223.653 138.3 226.787 138.3H229.487ZM247.221 95.2C247.221 94.0667 247.588 93.1333 248.321 92.4C249.054 91.6667 249.988 91.3 251.121 91.3C252.254 91.3 253.154 91.6667 253.821 92.4C254.554 93.1333 254.921 94.0667 254.921 95.2V142.1C254.921 143.233 254.554 144.167 253.821 144.9C253.154 145.633 252.254 146 251.121 146C249.988 146 249.054 145.633 248.321 144.9C247.588 144.167 247.221 143.233 247.221 142.1V95.2ZM251.121 70C252.588 70 253.854 70.5 254.921 71.5C255.988 72.5 256.521 73.8 256.521 75.4C256.521 76.9333 255.988 78.2333 254.921 79.3C253.854 80.3667 252.554 80.9 251.021 80.9C249.488 80.9 248.188 80.3667 247.121 79.3C246.121 78.2333 245.621 76.9333 245.621 75.4C245.621 73.8 246.154 72.5 247.221 71.5C248.288 70.5 249.588 70 251.121 70ZM299.427 90.8C304.694 90.8 309.427 92 313.627 94.4C317.827 96.8 321.127 100.133 323.527 104.4C325.994 108.667 327.227 113.433 327.227 118.7C327.227 123.967 326.027 128.733 323.627 133C321.227 137.2 317.894 140.5 313.627 142.9C309.427 145.3 304.694 146.5 299.427 146.5C294.161 146.5 289.394 145.3 285.127 142.9C280.927 140.5 277.627 137.2 275.227 133C272.827 128.733 271.627 123.967 271.627 118.7C271.627 113.433 272.827 108.667 275.227 104.4C277.627 100.133 280.927 96.8 285.127 94.4C289.394 92 294.161 90.8 299.427 90.8ZM299.427 97.8C295.627 97.8 292.161 98.7 289.027 100.5C285.961 102.3 283.527 104.8 281.727 108C279.994 111.133 279.127 114.7 279.127 118.7C279.127 122.633 279.994 126.2 281.727 129.4C283.527 132.533 285.961 135 289.027 136.8C292.161 138.6 295.627 139.5 299.427 139.5C303.294 139.5 306.761 138.6 309.827 136.8C312.894 135 315.294 132.533 317.027 129.4C318.761 126.2 319.627 122.633 319.627 118.7C319.627 114.7 318.761 111.133 317.027 108C315.294 104.8 312.894 102.3 309.827 100.5C306.761 98.7 303.294 97.8 299.427 97.8ZM368.103 90.7C372.836 90.7 377.07 91.7 380.803 93.7C384.603 95.7 387.57 98.6333 389.703 102.5C391.836 106.3 392.903 110.867 392.903 116.2V142.2C392.903 143.267 392.536 144.167 391.803 144.9C391.07 145.633 390.17 146 389.103 146C387.97 146 387.036 145.633 386.303 144.9C385.57 144.167 385.203 143.267 385.203 142.2V116.2C385.203 110.267 383.536 105.767 380.203 102.7C376.936 99.5667 372.636 98 367.303 98C364.036 98 361.07 98.6333 358.403 99.9C355.803 101.167 353.736 102.933 352.203 105.2C350.67 107.4 349.903 109.867 349.903 112.6V142.2C349.903 143.333 349.536 144.267 348.803 145C348.136 145.667 347.236 146 346.103 146C344.97 146 344.036 145.667 343.303 145C342.57 144.267 342.203 143.333 342.203 142.2V95.2C342.203 94.0667 342.57 93.1333 343.303 92.4C344.036 91.6667 344.97 91.3 346.103 91.3C347.236 91.3 348.136 91.6667 348.803 92.4C349.536 93.1333 349.903 94.0667 349.903 95.2V98.6C352.103 96.1333 354.77 94.2 357.903 92.8C361.036 91.4 364.436 90.7 368.103 90.7Z" fill="#C4C4C4"/>
<path d="M464.076 90.8C469.409 90.8 474.176 92 478.376 94.4C482.576 96.7333 485.876 100.033 488.276 104.3C490.676 108.5 491.876 113.3 491.876 118.7V139.1C491.876 144.433 490.676 149.267 488.276 153.6C485.942 157.933 482.676 161.333 478.476 163.8C474.276 166.333 469.542 167.6 464.276 167.6C459.142 167.6 454.576 166.633 450.576 164.7C446.576 162.767 443.209 160.067 440.476 156.6C439.876 155.933 439.576 155.167 439.576 154.3C439.576 153.3 440.042 152.433 440.976 151.7C441.642 151.233 442.376 151 443.176 151C443.776 151 444.376 151.133 444.976 151.4C445.576 151.733 446.042 152.133 446.376 152.6C448.376 155.133 450.909 157.1 453.976 158.5C457.042 159.9 460.509 160.6 464.376 160.6C468.109 160.6 471.476 159.667 474.476 157.8C477.542 156 479.942 153.433 481.676 150.1C483.409 146.833 484.276 143.067 484.276 138.8V134.3C482.276 138.1 479.442 141.1 475.776 143.3C472.109 145.433 467.942 146.5 463.276 146.5C458.076 146.5 453.409 145.333 449.276 143C445.209 140.6 442.009 137.3 439.676 133.1C437.409 128.833 436.276 124.033 436.276 118.7C436.276 113.3 437.476 108.5 439.876 104.3C442.276 100.033 445.576 96.7333 449.776 94.4C454.042 92 458.809 90.8 464.076 90.8ZM464.076 139.5C467.942 139.5 471.409 138.633 474.476 136.9C477.542 135.1 479.942 132.633 481.676 129.5C483.409 126.3 484.276 122.7 484.276 118.7C484.276 114.7 483.409 111.133 481.676 108C479.942 104.8 477.542 102.3 474.476 100.5C471.409 98.7 467.942 97.8 464.076 97.8C460.142 97.8 456.642 98.7 453.576 100.5C450.509 102.3 448.109 104.8 446.376 108C444.642 111.133 443.776 114.7 443.776 118.7C443.776 122.7 444.642 126.3 446.376 129.5C448.109 132.633 450.509 135.1 453.576 136.9C456.642 138.633 460.142 139.5 464.076 139.5ZM530.152 90.8C535.085 90.8 539.452 91.9667 543.252 94.3C547.052 96.5667 549.985 99.7333 552.052 103.8C554.185 107.867 555.252 112.5 555.252 117.7C555.252 118.767 554.918 119.633 554.252 120.3C553.585 120.9 552.718 121.2 551.652 121.2H511.252C511.785 126.667 513.918 131.1 517.652 134.5C521.385 137.9 526.052 139.6 531.652 139.6C534.052 139.6 536.452 139.2 538.852 138.4C541.318 137.533 543.285 136.467 544.752 135.2C545.618 134.533 546.518 134.2 547.452 134.2C548.185 134.2 548.918 134.467 549.652 135C550.518 135.8 550.952 136.7 550.952 137.7C550.952 138.567 550.585 139.333 549.852 140C547.652 141.867 544.852 143.433 541.452 144.7C538.052 145.9 534.785 146.5 531.652 146.5C526.318 146.5 521.552 145.333 517.352 143C513.152 140.6 509.852 137.3 507.452 133.1C505.118 128.833 503.952 124.033 503.952 118.7C503.952 113.3 505.052 108.5 507.252 104.3C509.518 100.033 512.618 96.7333 516.552 94.4C520.552 92 525.085 90.8 530.152 90.8ZM530.152 97.7C525.085 97.7 520.885 99.2667 517.552 102.4C514.218 105.533 512.185 109.667 511.452 114.8H548.052C547.518 109.667 545.652 105.533 542.452 102.4C539.252 99.2667 535.152 97.7 530.152 97.7ZM589.724 90.8C598.058 90.8 604.824 94 610.024 100.4C610.558 101 610.824 101.7 610.824 102.5C610.824 103.567 610.258 104.5 609.124 105.3C608.524 105.7 607.891 105.9 607.224 105.9C606.224 105.9 605.258 105.4 604.324 104.4C602.324 102.2 600.124 100.567 597.724 99.5C595.324 98.3667 592.658 97.8 589.724 97.8C586.058 97.8 582.791 98.7 579.924 100.5C577.058 102.233 574.824 104.7 573.224 107.9C571.691 111.1 570.924 114.7 570.924 118.7C570.924 122.633 571.758 126.2 573.424 129.4C575.091 132.533 577.424 135 580.424 136.8C583.424 138.6 586.858 139.5 590.724 139.5C596.058 139.5 600.358 138.067 603.624 135.2C604.491 134.467 605.391 134.1 606.324 134.1C607.124 134.1 607.858 134.367 608.524 134.9C609.458 135.7 609.924 136.6 609.924 137.6C609.924 138.467 609.591 139.2 608.924 139.8C604.124 144.267 598.058 146.5 590.724 146.5C585.524 146.5 580.858 145.3 576.724 142.9C572.591 140.433 569.324 137.1 566.924 132.9C564.591 128.633 563.424 123.9 563.424 118.7C563.424 113.367 564.558 108.6 566.824 104.4C569.091 100.133 572.224 96.8 576.224 94.4C580.224 92 584.724 90.8 589.724 90.8ZM667.195 140.5C667.795 141.167 668.095 141.933 668.095 142.8C668.095 143.8 667.628 144.7 666.695 145.5C665.895 146.1 665.095 146.4 664.295 146.4C663.228 146.4 662.328 145.933 661.595 145L640.995 119.7L633.495 126.5V142.2C633.495 143.333 633.128 144.267 632.395 145C631.728 145.667 630.828 146 629.695 146C628.561 146 627.628 145.667 626.895 145C626.228 144.267 625.895 143.333 625.895 142.2V71.7C625.895 70.5667 626.228 69.6667 626.895 69C627.628 68.2667 628.561 67.9 629.695 67.9C630.828 67.9 631.728 68.2667 632.395 69C633.128 69.6667 633.495 70.5667 633.495 71.7V117.2L661.695 91.7C662.428 91.0333 663.228 90.7 664.095 90.7C665.095 90.7 665.928 91.1 666.595 91.9C667.328 92.7667 667.695 93.5667 667.695 94.3C667.695 95.2333 667.261 96.0667 666.395 96.8L646.395 114.9L667.195 140.5Z" fill="black"/>
</svg>
